<?xml version="1.0" encoding="UTF-8"?>
<svg width="20px" height="10px" viewBox="0 0 20 10" version="1.1" xmlns="http://www.w3.org/2000/svg" xmlns:xlink="http://www.w3.org/1999/xlink">
    <path d="M12.875,8.90740741 L11.25,10.5925926 L11.25,-3.7037037 C11.25,-4.48148148 10.75,-5 10,-5 C9.25,-5 8.75,-4.48148148 8.75,-3.7037037 L8.75,10.5925926 L7.125,8.90740741 C6.625,8.38888889 5.875,8.38888889 5.375,8.90740741 C4.875,9.42592593 4.875,10.2037037 5.375,10.7222222 L9.125,14.6111111 C9.25,14.7407407 9.60015058,15 10,15 C10.3998494,15 10.75,14.7407407 10.875,14.6111111 L14.625,10.7222222 C15.125,10.2037037 15.125,9.42592593 14.625,8.90740741 C14.125,8.38888889 13.375,8.38888889 12.875,8.90740741 Z" transform="translate(5.000000, 15.000000) rotate(-90.000000)"></path>
</svg>