<?xml version="1.0" encoding="UTF-8"?>
<svg fill="#333333" width="20px" height="20px" viewBox="0 0 20 20" version="1.1" xmlns="http://www.w3.org/2000/svg" xmlns:xlink="http://www.w3.org/1999/xlink">
    <path d="M6.00050001,14.0015 L7.33400002,14.0015 L7.33400002,16.6685 L16.6685,16.6685 L16.6685,7.33400002 L14.0015,7.33400002 L14.0015,6.00050001 L16.6685,6.00050001 C17.4049718,6.00050001 18.002,6.5975283 18.002,7.33400002 L18.002,16.6685 C18.002,17.4049718 17.4049718,18.002 16.6685,18.002 L7.33400002,18.002 C6.5975283,18.002 6.00050001,17.4049718 6.00050001,16.6685 L6.00050001,14.0015 Z M3.3335,3.3335 L3.3335,12.668 L12.668,12.668 L12.668,3.3335 L3.3335,3.3335 Z M3.3335,2 L12.668,2 C13.4044717,2 14.0015,2.59702829 14.0015,3.3335 L14.0015,12.668 C14.0015,13.4044717 13.4044717,14.0015 12.668,14.0015 L3.3335,14.0015 C2.59702829,14.0015 2,13.4044717 2,12.668 L2,3.3335 C2,2.59702829 2.59702829,2 3.3335,2 Z" fill-rule="nonzero"></path>
</svg>