<?xml version="1.0" encoding="UTF-8"?>
<svg fill="#630FCD" width="24px" height="14px" viewBox="0 0 24 14" version="1.1" xmlns="http://www.w3.org/2000/svg" xmlns:xlink="http://www.w3.org/1999/xlink">
    <path d="M24,5.69072165 C24,2.44329897 18.8350515,0 12,0 C5.16494845,0 0,2.44329897 0,5.69072165 C0,7.57731959 1.67010309,9.21649485 4.70103093,10.2680412 C5.22680412,10.4536082 5.81443299,10.1752577 6,9.64948454 C6.03092784,9.58762887 6.03092784,9.49484536 6.06185567,9.43298969 C6.12371134,8.96907216 5.84536082,8.50515464 5.3814433,8.35051546 C3.37113402,7.63917526 2.04123711,6.58762887 2.04123711,5.69072165 C2.04123711,4.17525773 5.81443299,2.04123711 11.9690722,2.04123711 C18.1237113,2.04123711 21.8969072,4.17525773 21.8969072,5.69072165 C21.8969072,6.80412371 20.0103093,8.10309278 16.8556701,8.84536082 L18.4329897,7.48453608 C18.8659794,7.11340206 18.8969072,6.46391753 18.5257732,6.03092784 C18.1546392,5.59793814 17.5051546,5.56701031 17.0721649,5.93814433 L12.742268,9.68041237 C12.5876289,9.80412371 12.4948454,9.95876289 12.4329897,10.1443299 C12.371134,10.2989691 12.371134,10.4536082 12.4020619,10.6082474 C12.4639175,10.9484536 12.7113402,11.257732 13.0515464,11.3814433 L18.371134,13.4536082 C18.4948454,13.5154639 18.6185567,13.5154639 18.742268,13.5154639 C19.1443299,13.5154639 19.5463918,13.2680412 19.7010309,12.8659794 C19.9175258,12.3402062 19.6391753,11.7525773 19.1134021,11.5360825 L17.2886598,10.8247423 C21.4329897,9.89690722 24,8.01030928 24,5.69072165 Z"></path>
</svg>