<?xml version="1.0" encoding="UTF-8"?>
<svg fill="#333333" width="20px" height="20px" viewBox="0 0 20 20" version="1.1" xmlns="http://www.w3.org/2000/svg" xmlns:xlink="http://www.w3.org/1999/xlink">
    <path d="M2.38463416,9 L2.38463416,12 L7.92317082,12 L7.92317082,9 L2.38463416,9 Z M2.38463416,8 L7.92317082,8 C8.68788316,8 9.30780499,8.44771525 9.30780499,9 L9.30780499,12 C9.30780499,12.5522847 8.68788316,13 7.92317082,13 L2.38463416,13 C1.61992183,13 1,12.5522847 1,12 L1,9 C1,8.44771525 1.61992183,8 2.38463416,8 Z"></path>
    <rect x="4" y="10" width="12" height="1" rx="0.5"></rect>
    <path d="M12.0770733,9 L12.0770733,12 L17.61561,12 L17.61561,9 L12.0770733,9 Z M12.0770733,8 L17.61561,8 C18.3803223,8 19.0002441,8.44771525 19.0002441,9 L19.0002441,12 C19.0002441,12.5522847 18.3803223,13 17.61561,13 L12.0770733,13 C11.312361,13 10.6924392,12.5522847 10.6924392,12 L10.6924392,9 C10.6924392,8.44771525 11.312361,8 12.0770733,8 Z"></path>
</svg>