<?xml version="1.0" encoding="UTF-8"?>
<svg viewBox="0 0 36 32" fill="#FFAE00" width="36px" height="32px" version="1.1" xmlns="http://www.w3.org/2000/svg" xmlns:xlink="http://www.w3.org/1999/xlink">
    <path d="M34.57277,31.5492958 C34.57277,31.5492958 34.4976526,31.5492958 34.57277,31.5492958 L1.37089202,31.5492958 C0.845070423,31.5492958 0.394366197,31.2488263 0.169014085,30.8732394 C-0.0563380282,30.4225352 -0.0563380282,29.8967136 0.169014085,29.4460094 L16.7699531,0.676056338 C16.9953052,0.225352113 17.5211268,0 17.971831,0 C18.4976526,0 18.9483568,0.300469484 19.1737089,0.676056338 L35.6995305,29.2206573 C35.9248826,29.4460094 36,29.7464789 36,30.1220657 C36,30.8732394 35.3239437,31.5492958 34.57277,31.5492958 Z M19.3239437,25.2394366 L19.3239437,24.713615 C19.3239437,23.8873239 18.6478873,23.286385 17.8967136,23.286385 C17.0704225,23.286385 16.4694836,23.9624413 16.4694836,24.713615 L16.4694836,25.2394366 C16.4694836,26.0657277 17.1455399,26.6666667 17.8967136,26.6666667 C18.7230047,26.6666667 19.3239437,25.9906103 19.3239437,25.2394366 Z M19.3239437,11.7183099 C19.3239437,10.8920188 18.7230047,10.2910798 17.8967136,10.2910798 C17.0704225,10.2910798 16.4694836,10.9671362 16.4694836,11.7183099 L16.4694836,20.5821596 C16.4694836,21.4084507 17.1455399,22.0093897 17.8967136,22.0093897 C18.7230047,22.0093897 19.3239437,21.3333333 19.3239437,20.5821596 L19.3239437,11.7183099 Z"></path>
</svg>