<?xml version="1.0" encoding="UTF-8"?>
<svg width="20px" height="20px" viewBox="0 0 20 20" version="1.1" xmlns="http://www.w3.org/2000/svg" xmlns:xlink="http://www.w3.org/1999/xlink">
    <g transform="translate(2.000000, 2.000000)" >
        <rect x="0" y="8.00100002" width="2.66700001" height="1.3335" rx="0.666750002"></rect>
        <rect x="2.66700001" y="2.66700001" width="1.3335" height="1.3335" rx="0.666750002"></rect>
        <rect x="12.0015" y="2.66700001" width="1.3335" height="1.3335" rx="0.666750002"></rect>
        <rect x="12.0015" y="12.0015" width="1.3335" height="1.3335" rx="0.666750002"></rect>
        <rect x="6.66750002" y="13.335" width="1.3335" height="2.66700001" rx="0.666750002"></rect>
        <path d="M1.3335,1.3335 L1.3335,5.33400002 L5.33400002,5.33400002 L5.33400002,1.3335 L1.3335,1.3335 Z M1.3335,0 L5.33400002,0 C6.07047173,-1.35287659e-16 6.66750002,0.597028288 6.66750002,1.3335 L6.66750002,5.33400002 C6.66750002,6.07047173 6.07047173,6.66750002 5.33400002,6.66750002 L1.3335,6.66750002 C0.597028288,6.66750002 9.0191773e-17,6.07047173 0,5.33400002 L0,1.3335 C-9.0191773e-17,0.597028288 0.597028288,1.35287659e-16 1.3335,0 Z" ></path>
        <path d="M1.3335,12.0015 L1.3335,14.6685 L4.00050001,14.6685 L4.00050001,12.0015 L1.3335,12.0015 Z M1.3335,10.668 L4.00050001,10.668 C4.73697173,10.668 5.33400002,11.2650283 5.33400002,12.0015 L5.33400002,14.6685 C5.33400002,15.4049718 4.73697173,16.002 4.00050001,16.002 L1.3335,16.002 C0.597028288,16.002 9.0191773e-17,15.4049718 0,14.6685 L0,12.0015 C-9.0191773e-17,11.2650283 0.597028288,10.668 1.3335,10.668 Z"></path>
        <path d="M5.33400002,9.33450003 L5.33400002,10.668 L6.66750002,10.668 L6.66750002,9.33450003 L5.33400002,9.33450003 Z M5.33400002,8.00100002 L6.66750002,8.00100002 C7.40397174,8.00100002 8.00100002,8.59802831 8.00100002,9.33450003 L8.00100002,10.668 C8.00100002,11.4044717 7.40397174,12.0015 6.66750002,12.0015 L5.33400002,12.0015 C4.5975283,12.0015 4.00050001,11.4044717 4.00050001,10.668 L4.00050001,9.33450003 C4.00050001,8.59802831 4.5975283,8.00100002 5.33400002,8.00100002 Z"></path>
        <path d="M10.668,1.3335 L10.668,5.33400002 L14.6685,5.33400002 L14.6685,1.3335 L10.668,1.3335 Z M10.668,0 L14.6685,0 C15.4049718,-1.35287659e-16 16.002,0.597028288 16.002,1.3335 L16.002,5.33400002 C16.002,6.07047173 15.4049718,6.66750002 14.6685,6.66750002 L10.668,6.66750002 C9.93152831,6.66750002 9.33450003,6.07047173 9.33450003,5.33400002 L9.33450003,1.3335 C9.33450003,0.597028288 9.93152831,1.35287659e-16 10.668,0 Z"></path>
        <path d="M10.668,10.668 L10.668,14.6685 L14.6685,14.6685 L14.6685,10.668 L10.668,10.668 Z M10.668,9.33450003 L14.6685,9.33450003 C15.4049718,9.33450003 16.002,9.93152831 16.002,10.668 L16.002,14.6685 C16.002,15.4049718 15.4049718,16.002 14.6685,16.002 L10.668,16.002 C9.93152831,16.002 9.33450003,15.4049718 9.33450003,14.6685 L9.33450003,10.668 C9.33450003,9.93152831 9.93152831,9.33450003 10.668,9.33450003 Z"></path>
    </g>
</svg>