<?xml version="1.0" encoding="UTF-8"?>
<svg width="130px" height="74px" viewBox="0 0 130 74" version="1.1" xmlns="http://www.w3.org/2000/svg" xmlns:xlink="http://www.w3.org/1999/xlink">
    <path d="M130,33.9645556 L130,71 C130,72.6568542 128.656854,74 127,74 L3,74 C1.34314575,74 7.30833348e-15,72.6568542 7.10542736e-15,71 L3.2355353e-15,33.9645556 C1.69614707,33.7219407 3,32.263236 3,30.5 C3,28.736764 1.69614707,27.2780593 2.47024623e-15,27.0354444 L0,3 C-2.02906125e-16,1.34314575 1.34314575,3.04359188e-16 3,0 L127,0 C128.656854,-3.04359188e-16 130,1.34314575 130,3 L130,27.0354444 C128.303853,27.2780593 127,28.736764 127,30.5 C127,32.263236 128.303853,33.7219407 130,33.9645556 Z" />
</svg>