<?xml version="1.0" encoding="UTF-8"?>
<svg width="300px" height="120px" viewBox="0 0 300 120" version="1.1" xmlns="http://www.w3.org/2000/svg" xmlns:xlink="http://www.w3.org/1999/xlink">
    <!-- Generator: Sketch 47.1 (45422) - http://www.bohemiancoding.com/sketch -->
    <title>logo-col</title>
    <desc>Created with Sketch.</desc>
    <defs></defs>
    <g id="Page-1" stroke="none" stroke-width="1" fill="none" fill-rule="evenodd">
        <g id="logo-col">
            <g>
                <path d="M23.0937881,108.875714 C23.9220504,109.977625 24.3361754,111.308564 24.3361754,112.868571 C24.3361754,115.146678 23.4348446,116.904756 21.6321559,118.142857 C19.8294672,119.380959 17.222916,120 13.8124239,120 L0,120 L0,94 L13.0816078,94 C16.3459359,94 18.8306857,94.612851 20.5359318,95.8385714 C22.2411778,97.0642918 23.0937881,98.7171325 23.0937881,100.797143 C23.0937881,102.035244 22.7953745,103.143328 22.1985384,104.121429 C21.6017023,105.099529 20.7551821,105.87333 19.6589525,106.442857 C21.120592,106.96286 22.2655257,107.773804 23.0937881,108.875714 Z M7.16199756,99.3114286 L7.16199756,104.325714 L12.1315469,104.325714 C14.5676127,104.325714 15.7856273,103.483818 15.7856273,101.8 C15.7856273,100.140944 14.5676127,99.3114286 12.1315469,99.3114286 L7.16199756,99.3114286 Z M17.0280146,112.051429 C17.0280146,110.293325 15.7612794,109.414286 13.227771,109.414286 L7.16199756,109.414286 L7.16199756,114.688571 L13.227771,114.688571 C15.7612794,114.688571 17.0280146,113.809533 17.0280146,112.051429 Z M49.5493301,114.317143 L49.5493301,120 L29.0133983,120 L29.0133983,94 L49.0742996,94 L49.0742996,99.6828571 L36.1753959,99.6828571 L36.1753959,104.065714 L47.5395859,104.065714 L47.5395859,109.562857 L36.1753959,109.562857 L36.1753959,114.317143 L49.5493301,114.317143 Z M65.6638246,113.091429 L61.7174178,113.091429 L61.7174178,120 L54.4823386,120 L54.4823386,94 L66.1753959,94 C68.4896583,94 70.4993825,94.3899961 72.2046285,95.17 C73.9098745,95.9500039 75.2253303,97.0642785 76.1510353,98.5128571 C77.0767403,99.9614358 77.5395859,101.6638 77.5395859,103.62 C77.5395859,105.501914 77.1071907,107.142374 76.2423873,108.541429 C75.377584,109.940483 74.1412991,111.036187 72.5334957,111.828571 L78.0511571,120 L70.3045067,120 L65.6638246,113.091429 Z M69.0986602,100.797143 C68.3434798,100.128568 67.2229063,99.7942857 65.7369062,99.7942857 L61.7174178,99.7942857 L61.7174178,107.408571 L65.7369062,107.408571 C67.2229063,107.408571 68.3434798,107.080479 69.0986602,106.424286 C69.8538406,105.768092 70.2314251,104.833339 70.2314251,103.62 C70.2314251,102.406661 69.8538406,101.465718 69.0986602,100.797143 Z M93.6175396,113.091429 L89.6711328,113.091429 L89.6711328,120 L82.4360536,120 L82.4360536,94 L94.1291108,94 C96.4433733,94 98.4530974,94.3899961 100.158343,95.17 C101.86359,95.9500039 103.179045,97.0642785 104.10475,98.5128571 C105.030455,99.9614358 105.493301,101.6638 105.493301,103.62 C105.493301,105.501914 105.060906,107.142374 104.196102,108.541429 C103.331299,109.940483 102.095014,111.036187 100.487211,111.828571 L106.004872,120 L98.2582217,120 L93.6175396,113.091429 Z M97.0523752,100.797143 C96.2971948,100.128568 95.1766213,99.7942857 93.6906212,99.7942857 L89.6711328,99.7942857 L89.6711328,107.408571 L93.6906212,107.408571 C95.1766213,107.408571 96.2971948,107.080479 97.0523752,106.424286 C97.8075555,105.768092 98.1851401,104.833339 98.1851401,103.62 C98.1851401,102.406661 97.8075555,101.465718 97.0523752,100.797143 Z M123.727162,110.677143 L123.727162,120 L116.492083,120 L116.492083,110.565714 L106.735688,94 L114.372716,94 L120.43849,104.325714 L126.504263,94 L133.520097,94 L123.727162,110.677143 Z M175.359318,94 L167.064555,120 L159.317905,120 L154.421437,104.177143 L149.305725,120 L141.559074,120 L133.264312,94 L140.718636,94 L145.870889,110.602857 L151.278928,94 L157.929354,94 L163.081608,110.751429 L168.453106,94 L175.359318,94 Z M195.127893,114.948571 L184.311815,114.948571 L182.302071,120 L174.920828,120 L186.211937,94 L193.337393,94 L204.665043,120 L197.137637,120 L195.127893,114.948571 Z M193.008526,109.525714 L189.719854,101.205714 L186.431181,109.525714 L193.008526,109.525714 Z M207.624848,94 L214.859927,94 L214.859927,114.168571 L227.064555,114.168571 L227.064555,120 L207.624848,120 L207.624848,94 Z M230.828258,94 L238.063337,94 L238.063337,114.168571 L250.267966,114.168571 L250.267966,120 L230.828258,120 L230.828258,94 Z M274.5676,114.317143 L274.5676,120 L254.031669,120 L254.031669,94 L274.09257,94 L274.09257,99.6828571 L261.193666,99.6828571 L261.193666,104.065714 L272.557856,104.065714 L272.557856,109.562857 L261.193666,109.562857 L261.193666,114.317143 L274.5676,114.317143 Z M284.945189,99.8314286 L277.088916,99.8314286 L277.088916,94 L300,94 L300,99.8314286 L292.180268,99.8314286 L292.180268,120 L284.945189,120 L284.945189,99.8314286 Z" id="BERRYWALLET" fill="#3E4D79"></path>
                <g id="icon" transform="translate(118.000000, 0.000000)">
                    <path d="M32.2727273,63.3382353 C44.7493418,63.3382353 54.8636364,53.24489 54.8636364,40.7941176 C54.8636364,28.3433453 44.7493418,18.25 32.2727273,18.25 C19.7961127,18.25 9.68181818,28.3433453 9.68181818,40.7941176 C9.68181818,53.24489 19.7961127,63.3382353 32.2727273,63.3382353 Z M32.2727273,73 C14.4489922,73 0,58.5809353 0,40.7941176 C0,23.0073 14.4489922,8.58823529 32.2727273,8.58823529 C50.0964624,8.58823529 64.5454545,23.0073 64.5454545,40.7941176 C64.5454545,58.5809353 50.0964624,73 32.2727273,73 Z" id="Oval-2" fill="#FB5D4E" fill-rule="nonzero"></path>
                    <ellipse id="Oval-2-Copy" fill="#8ABE17" cx="64.5454545" cy="6.44117647" rx="6.45454545" ry="6.44117647"></ellipse>
                </g>
            </g>
        </g>
    </g>
</svg>