<?xml version="1.0" encoding="UTF-8"?>
<svg width="300px" height="57px" viewBox="0 0 300 57" version="1.1" xmlns="http://www.w3.org/2000/svg" xmlns:xlink="http://www.w3.org/1999/xlink">
    <!-- Generator: Sketch 47.1 (45422) - http://www.bohemiancoding.com/sketch -->
    <title>logo-line</title>
    <desc>Created with Sketch.</desc>
    <defs></defs>
    <g id="Page-1" stroke="none" stroke-width="1" fill="none" fill-rule="evenodd">
        <g id="logo-line">
            <g>
                <g id="Group-2-Copy-5">
                    <g id="Group">
                        <path d="M25.0557099,49.4432675 C34.7422304,49.4432675 42.5947068,41.5907911 42.5947068,31.9042706 C42.5947068,22.2177501 34.7422304,14.3652737 25.0557099,14.3652737 C15.3691894,14.3652737 7.51671296,22.2177501 7.51671296,31.9042706 C7.51671296,41.5907911 15.3691894,49.4432675 25.0557099,49.4432675 Z M25.0557099,56.9599805 C11.2178234,56.9599805 0,45.742157 0,31.9042706 C0,18.0663841 11.2178234,6.8485607 25.0557099,6.8485607 C38.8935963,6.8485607 50.1114198,18.0663841 50.1114198,31.9042706 C50.1114198,45.742157 38.8935963,56.9599805 25.0557099,56.9599805 Z" id="Oval-2" fill="#FB5D4E" fill-rule="nonzero"></path>
                        <circle id="Oval-2-Copy" fill="#8ABE17" cx="51.7818004" cy="5.01114198" r="5.01114198"></circle>
                    </g>
                </g>
                <path d="M81.2440926,34.015 C81.8984198,34.9050045 82.2255786,35.9799937 82.2255786,37.24 C82.2255786,39.0800092 81.5135272,40.499995 80.0894032,41.5 C78.6652791,42.500005 76.6061036,43 73.9118149,43 L63,43 L63,22 L73.3344702,22 C75.9132894,22 77.8762417,22.494995 79.2233861,23.485 C80.5705305,24.4750049 81.2440926,25.8099916 81.2440926,27.49 C81.2440926,28.490005 81.0083458,29.3849961 80.5368453,30.175 C80.0653448,30.965004 79.3965939,31.5899977 78.5305725,32.05 C79.6852676,32.4700021 80.5897653,33.1249956 81.2440926,34.015 Z M68.6579781,26.29 L68.6579781,30.34 L72.583922,30.34 C74.508414,30.34 75.4706456,29.6600068 75.4706456,28.3 C75.4706456,26.9599933 74.508414,26.29 72.583922,26.29 L68.6579781,26.29 Z M76.4521315,36.58 C76.4521315,35.1599929 75.4514107,34.45 73.4499391,34.45 L68.6579781,34.45 L68.6579781,38.71 L73.4499391,38.71 C75.4514107,38.71 76.4521315,38.0000071 76.4521315,36.58 Z M102.143971,38.41 L102.143971,43 L85.9205847,43 L85.9205847,22 L101.768697,22 L101.768697,26.59 L91.5785627,26.59 L91.5785627,30.13 L100.556273,30.13 L100.556273,34.57 L91.5785627,34.57 L91.5785627,38.41 L102.143971,38.41 Z M114.874421,37.42 L111.75676,37.42 L111.75676,43 L106.041048,43 L106.041048,22 L115.278563,22 C117.10683,22 118.694512,22.3149969 120.041657,22.945 C121.388801,23.5750032 122.428011,24.4749942 123.159318,25.645 C123.890625,26.8150059 124.256273,28.1899921 124.256273,29.77 C124.256273,31.2900076 123.914681,32.6149943 123.231486,33.745 C122.548291,34.8750057 121.571626,35.7599968 120.301462,36.4 L124.660414,43 L118.54056,43 L114.874421,37.42 Z M117.587942,27.49 C116.991349,26.9499973 116.106096,26.68 114.932156,26.68 L111.75676,26.68 L111.75676,32.83 L114.932156,32.83 C116.106096,32.83 116.991349,32.5650026 117.587942,32.035 C118.184534,31.5049974 118.482826,30.7500049 118.482826,29.77 C118.482826,28.7899951 118.184534,28.0300027 117.587942,27.49 Z M136.957856,37.42 L133.840195,37.42 L133.840195,43 L128.124482,43 L128.124482,22 L137.361998,22 C139.190265,22 140.777947,22.3149969 142.125091,22.945 C143.472236,23.5750032 144.511446,24.4749942 145.242753,25.645 C145.97406,26.8150059 146.339708,28.1899921 146.339708,29.77 C146.339708,31.2900076 145.998115,32.6149943 145.314921,33.745 C144.631726,34.8750057 143.655061,35.7599968 142.384896,36.4 L146.743849,43 L140.623995,43 L136.957856,37.42 Z M139.671376,27.49 C139.074784,26.9499973 138.189531,26.68 137.015591,26.68 L133.840195,26.68 L133.840195,32.83 L137.015591,32.83 C138.189531,32.83 139.074784,32.5650026 139.671376,32.035 C140.267969,31.5049974 140.566261,30.7500049 140.566261,29.77 C140.566261,28.7899951 140.267969,28.0300027 139.671376,27.49 Z M160.744458,35.47 L160.744458,43 L155.028745,43 L155.028745,35.38 L147.321194,22 L153.354446,22 L158.146407,30.34 L162.938368,22 L168.480877,22 L160.744458,35.47 Z M201.533861,22 L194.980999,43 L188.861145,43 L184.992935,30.22 L180.951523,43 L174.831669,43 L168.278806,22 L174.167722,22 L178.238002,35.41 L182.510353,22 L187.76419,22 L191.83447,35.53 L196.077954,22 L201.533861,22 Z M217.151035,38.92 L208.606334,38.92 L207.018636,43 L201.187454,43 L210.10743,22 L215.736541,22 L224.685384,43 L218.738733,43 L217.151035,38.92 Z M215.476736,34.54 L212.878685,27.82 L210.280633,34.54 L215.476736,34.54 Z M227.02363,22 L232.739342,22 L232.739342,38.29 L242.380999,38.29 L242.380999,43 L227.02363,43 L227.02363,22 Z M245.354324,22 L251.070037,22 L251.070037,38.29 L260.711693,38.29 L260.711693,43 L245.354324,43 L245.354324,22 Z M279.908404,38.41 L279.908404,43 L263.685018,43 L263.685018,22 L279.53313,22 L279.53313,26.59 L269.342996,26.59 L269.342996,30.13 L278.320706,30.13 L278.320706,34.57 L269.342996,34.57 L269.342996,38.41 L279.908404,38.41 Z M288.106699,26.71 L281.900244,26.71 L281.900244,22 L300,22 L300,26.71 L293.822412,26.71 L293.822412,43 L288.106699,43 L288.106699,26.71 Z" id="BERRYWALLET-Copy" fill="#3E4D79"></path>
            </g>
        </g>
    </g>
</svg>