<?xml version="1.0" encoding="UTF-8"?>
<svg viewBox="0 0 64 64" version="1.1" xmlns="http://www.w3.org/2000/svg" xmlns:xlink="http://www.w3.org/1999/xlink" fill="#FF3974">
    <title>Bitcoin Test</title>
    <path d="M32,64 C14.326888,64 0,49.673112 0,32 C0,14.326888 14.326888,0 32,0 C49.673112,0 64,14.326888 64,32 C64,49.673112 49.673112,64 32,64 Z M51.4260804,50.511335 C51.331838,50.511335 51.2190855,50.5618212 51.0878194,50.6627951 C50.9565532,50.7637691 50.800046,50.8765216 50.6182929,51.0010561 C50.4365398,51.1255907 50.2244977,51.2383432 49.9821602,51.3393172 C49.7398227,51.4402911 49.4705629,51.4907773 49.1743727,51.4907773 C48.8781825,51.4907773 48.6762376,51.4251452 48.5685321,51.2938791 C48.4608265,51.162613 48.4069746,50.9791797 48.4069746,50.7435739 C48.4069746,49.9021243 48.7940355,48.4312926 49.5681691,46.3310346 L50.2547885,44.5539021 L50.3355672,44.5539021 C52.4358253,44.5539021 53.4859385,44.1096234 53.4859385,43.2210527 C53.4859385,43.0796892 53.3900147,43.0090085 53.1981642,43.0090085 C53.0063137,43.0090085 52.8464407,43.0123742 52.7185404,43.0191058 L52.1429918,43.0292032 C51.8871911,43.0359348 51.5506164,43.0393005 51.1332574,43.0393005 L50.8909211,43.0393005 L51.6381246,41.4136281 C51.7189037,41.2386066 51.7592927,41.0837822 51.7592927,40.9491503 C51.7592927,40.7000813 51.6515888,40.4745762 51.4361777,40.2726283 C51.3419354,40.1851175 51.2342314,40.1178026 51.1130627,40.0706814 C50.991894,40.0235602 50.8404353,40 50.6586822,40 C50.4769291,40 50.3120075,40.053852 50.1639124,40.1615575 C49.854259,40.3971634 49.3359338,41.3664987 48.6089214,43.0695925 L47.8112313,43.0695925 C47.5688938,43.0695925 47.3299257,43.1671992 47.0943199,43.3624155 C46.9933459,43.4499263 46.9108851,43.5408014 46.8469349,43.6350438 C46.7829848,43.7292861 46.7510102,43.811747 46.7510102,43.8824287 C46.7510102,43.9531105 46.7611074,44.0187426 46.7813022,44.0793269 C46.8486182,44.2812748 47.2693366,44.4159047 48.0434702,44.4832207 C46.6702245,48.212525 46.1552652,50.652692 46.4985766,51.803795 C46.7880352,52.7731448 47.4746477,53.2578125 48.5584347,53.2578125 C49.1844732,53.2578125 49.8071365,53.0592334 50.4264433,52.6620692 C50.9717026,52.3120262 51.3352034,51.941794 51.5169565,51.5513614 C51.6515884,51.3426819 51.7189033,51.1272741 51.7189033,50.9051314 C51.7189033,50.6425991 51.6212967,50.511335 51.4260804,50.511335 Z M46.3779052,28.0403692 C47.0051052,23.847877 43.8129822,21.5940924 39.4481822,20.0905846 L40.864059,14.4113231 L37.4070744,13.5497846 L36.028613,19.0793846 C35.119813,18.8529231 34.1863976,18.6392615 33.2588898,18.4275692 L34.6471976,12.8615385 L31.1921822,12 L29.7753206,17.6772923 C29.0230744,17.5059692 28.284613,17.3366154 27.567813,17.1584 L27.5717514,17.1406769 L22.8042436,15.9502769 L21.884613,19.6425846 C21.884613,19.6425846 24.449536,20.2304 24.3953822,20.2668308 C25.7955052,20.6163692 26.0485514,21.5428924 26.006213,22.2774154 L24.393413,28.747323 C24.4899052,28.7719384 24.6149514,28.8073846 24.7527976,28.862523 C24.6375976,28.8339692 24.5145206,28.8024616 24.3875052,28.7719384 L22.1268284,37.835323 C21.9555052,38.260677 21.5212898,38.8987076 20.5425822,38.6564924 C20.5770436,38.7067076 18.0298437,38.0292924 18.0298437,38.0292924 L16.3136591,41.9864616 L20.8123668,43.1079384 C21.6492898,43.3176616 22.4694744,43.5372308 23.276859,43.744 L21.846213,49.4882462 L25.299259,50.3497846 L26.7161206,44.6665846 C27.6593822,44.9225846 28.5750744,45.1588924 29.4710744,45.3814154 L28.059136,51.0380308 L31.5161206,51.8995692 L32.9467668,46.1661538 C38.841659,47.281723 43.2743976,46.8317538 45.1402436,41.5000616 C46.6437514,37.2071384 45.065413,34.7308308 41.9638744,33.1160616 C44.2225822,32.5952 45.9239976,31.1094154 46.3779052,28.0403692 Z M38.4793206,39.1163076 C37.411013,43.4092308 30.1829514,41.0884924 27.8395668,40.5065846 L29.7379052,32.8964924 C32.0812898,33.4813538 39.5958744,34.6392616 38.4793206,39.1163076 Z M39.548613,27.9783384 C38.5738436,31.883323 32.5578436,29.899323 30.606336,29.412923 L32.3274436,22.5107692 C34.2789514,22.9971692 40.5637514,23.9049846 39.548613,27.9783384 Z"></path>
</svg>