<?xml version="1.0" encoding="UTF-8"?>
<svg viewBox="0 0 64 64" version="1.1" xmlns="http://www.w3.org/2000/svg" xmlns:xlink="http://www.w3.org/1999/xlink" fill="#FF3974">
    <title>Ethereum Test</title>
    <path d="M32,64 C14.326888,64 0,49.673112 0,32 C0,14.326888 14.326888,0 32,0 C49.673112,0 64,14.326888 64,32 C64,49.673112 49.673112,64 32,64 Z M51.4260804,50.511335 C51.331838,50.511335 51.2190855,50.5618212 51.0878194,50.6627951 C50.9565532,50.7637691 50.800046,50.8765216 50.6182929,51.0010561 C50.4365398,51.1255907 50.2244977,51.2383432 49.9821602,51.3393172 C49.7398227,51.4402911 49.4705629,51.4907773 49.1743727,51.4907773 C48.8781825,51.4907773 48.6762376,51.4251452 48.5685321,51.2938791 C48.4608265,51.162613 48.4069746,50.9791797 48.4069746,50.7435739 C48.4069746,49.9021243 48.7940355,48.4312926 49.5681691,46.3310346 L50.2547885,44.5539021 L50.3355672,44.5539021 C52.4358253,44.5539021 53.4859385,44.1096234 53.4859385,43.2210527 C53.4859385,43.0796892 53.3900147,43.0090085 53.1981642,43.0090085 C53.0063137,43.0090085 52.8464407,43.0123742 52.7185404,43.0191058 L52.1429918,43.0292032 C51.8871911,43.0359348 51.5506164,43.0393005 51.1332574,43.0393005 L50.8909211,43.0393005 L51.6381246,41.4136281 C51.7189037,41.2386066 51.7592927,41.0837822 51.7592927,40.9491503 C51.7592927,40.7000813 51.6515888,40.4745762 51.4361777,40.2726283 C51.3419354,40.1851175 51.2342314,40.1178026 51.1130627,40.0706814 C50.991894,40.0235602 50.8404353,40 50.6586822,40 C50.4769291,40 50.3120075,40.053852 50.1639124,40.1615575 C49.854259,40.3971634 49.3359338,41.3664987 48.6089214,43.0695925 L47.8112313,43.0695925 C47.5688938,43.0695925 47.3299257,43.1671992 47.0943199,43.3624155 C46.9933459,43.4499263 46.9108851,43.5408014 46.8469349,43.6350438 C46.7829848,43.7292861 46.7510102,43.811747 46.7510102,43.8824287 C46.7510102,43.9531105 46.7611074,44.0187426 46.7813022,44.0793269 C46.8486182,44.2812748 47.2693366,44.4159047 48.0434702,44.4832207 C46.6702245,48.212525 46.1552652,50.652692 46.4985766,51.803795 C46.7880352,52.7731448 47.4746477,53.2578125 48.5584347,53.2578125 C49.1844732,53.2578125 49.8071365,53.0592334 50.4264433,52.6620692 C50.9717026,52.3120262 51.3352034,51.941794 51.5169565,51.5513614 C51.6515884,51.3426819 51.7189033,51.1272741 51.7189033,50.9051314 C51.7189033,50.6425991 51.6212967,50.511335 51.4260804,50.511335 Z M18.5385191,29.507483 L33.1234106,23.5428572 L47.2595362,29.659864 L33.1009724,8 L18.5385191,29.507483 Z M18.5833957,36.12517 L33.2804786,56 L48,36.12517 L33.145849,44.310204 L18.5833957,36.12517 Z M33.1907256,26.459864 L18,32.6639456 L33.1907256,40.8489796 L47.9551234,32.8380952 L33.1907256,26.459864 Z"></path>
</svg>