<?xml version="1.0" encoding="UTF-8"?>
<svg viewBox="0 0 40 40" version="1.1" xmlns="http://www.w3.org/2000/svg" xmlns:xlink="http://www.w3.org/1999/xlink" fill="#4A90E2">
    <path d="M20,40 C8.954305,40 0,31.045695 0,20 C0,8.954305 8.954305,0 20,0 C31.045695,0 40,8.954305 40,20 C40,31.045695 31.045695,40 20,40 Z M26.6208467,22.3569325 C25.8155525,21.8766714 24.9086909,21.7374736 24.0104233,21.705073 C23.2567798,21.6778901 22.1323775,21.1790685 22.1323775,19.7630141 C22.1323775,18.7079652 22.9604254,17.8588609 24.0108086,17.8209773 C24.9090012,17.7885767 25.8157773,17.649202 26.6208467,17.1691067 C28.6201481,15.9768689 29.5020915,13.4740621 28.7124884,11.2333801 C27.9228852,8.99269814 25.6896913,7.66101867 23.4161834,8.07513198 C21.1426755,8.48924522 19.485208,10.529598 19.4852871,12.9140896 C19.4852871,13.8660667 19.8130965,14.7421218 20.2313746,15.5546468 C20.5831684,16.2380336 20.7611523,17.5064115 19.554597,18.2258911 C18.6570573,18.7611261 17.5369146,18.4222184 16.9774159,17.4973469 C16.5048113,16.7161722 15.9342996,15.9842342 15.1355554,15.5078312 C13.1362877,14.3155948 10.5968514,14.7780826 9.11293633,16.6046841 C7.62902122,18.4312857 7.62902122,21.0946762 9.11293633,22.9212777 C10.5968514,24.7478792 13.1362877,25.210367 15.1355554,24.0181306 C15.9340749,23.5419044 16.5046401,22.8104418 16.976945,22.0297426 C17.3647851,21.3886612 18.333422,20.5714932 19.5545542,21.3002365 C20.450724,21.8350514 20.7277709,23.0068132 20.2309572,23.9719672 C19.8127433,24.7843708 19.4853513,25.6602378 19.4853513,26.6120491 C19.4853549,28.9964816 21.1428343,31.0367305 23.4162943,31.4507835 C25.6897543,31.8648365 27.9228701,30.5331605 28.712439,28.2925286 C29.5020079,26.0518968 28.6200895,23.5491568 26.6208467,22.3569325 Z"  fill-rule="nonzero"></path>
</svg>