<?xml version="1.0" encoding="UTF-8"?>
<svg width="20px" height="20px" viewBox="0 0 20 20" version="1.1" xmlns="http://www.w3.org/2000/svg" xmlns:xlink="http://www.w3.org/1999/xlink">
    <path fill="#FFFFFF" d="M11,11 L14,11 C14.5522847,11 15,10.5522847 15,10 C15,9.44771525 14.5522847,9 14,9 L11,9 L11,6 C11,5.44771525 10.5522847,5 10,5 C9.44771525,5 9,5.44771525 9,6 L9,9 L6,9 C5.44771525,9 5,9.44771525 5,10 C5,10.5522847 5.44771525,11 6,11 L9,11 L9,14 C9,14.5522847 9.44771525,15 10,15 C10.5522847,15 11,14.5522847 11,14 L11,11 Z M10,20 C4.4771525,20 0,15.5228475 0,10 C0,4.4771525 4.4771525,8.8817842e-16 10,8.8817842e-16 C15.5228475,8.8817842e-16 20,4.4771525 20,10 C20,15.5228475 15.5228475,20 10,20 Z"></path>
</svg>