<?xml version="1.0" encoding="UTF-8"?>
<svg viewBox="0 0 63 41" version="1.1" xmlns="http://www.w3.org/2000/svg" xmlns:xlink="http://www.w3.org/1999/xlink">
    <path d="M42.7125,28.1758621 L36.375,34.7655172 L36.375,-5.93103448 C36.375,-8.97241379 34.425,-11 31.5,-11 C28.575,-11 26.625,-8.97241379 26.625,-5.93103448 L26.625,34.7655172 L20.2875,28.1758621 C18.3375,26.1482759 15.4125,26.1482759 13.4625,28.1758621 C11.5125,30.2034483 11.5125,33.2448276 13.4625,35.2724138 L28.0875,50.4793103 C28.575,50.9862069 29.6136637,52 31.5,52 C33.3863363,52 34.425,50.9862069 34.9125,50.4793103 L49.5375,35.2724138 C51.4875,33.2448276 51.4875,30.2034483 49.5375,28.1758621 C47.5875,26.1482759 44.6625,26.1482759 42.7125,28.1758621 Z" transform="translate(31.500000, 20.500000) scale(-1, 1) rotate(-90.000000) translate(-31.500000, -20.500000) "></path>

</svg>