<?xml version="1.0" encoding="UTF-8"?>
<svg viewBox="0 0 41 63" version="1.1" xmlns="http://www.w3.org/2000/svg" xmlns:xlink="http://www.w3.org/1999/xlink">
    <path d="M31.7125,39.1758621 L25.375,45.7655172 L25.375,5.06896552 C25.375,2.02758621 23.425,0 20.5,0 C17.575,0 15.625,2.02758621 15.625,5.06896552 L15.625,45.7655172 L9.2875,39.1758621 C7.3375,37.1482759 4.4125,37.1482759 2.4625,39.1758621 C0.5125,41.2034483 0.5125,44.2448276 2.4625,46.2724138 L17.0875,61.4793103 C17.575,61.9862069 18.6136637,63 20.5,63 C22.3863363,63 23.425,61.9862069 23.9125,61.4793103 L38.5375,46.2724138 C40.4875,44.2448276 40.4875,41.2034483 38.5375,39.1758621 C36.5875,37.1482759 33.6625,37.1482759 31.7125,39.1758621 Z" transform="translate(20.500000, 31.500000) scale(-1, 1) rotate(180.000000) translate(-20.500000, -31.500000) "></path>
</svg>