<?xml version="1.0" encoding="UTF-8"?>
<svg width="27px" height="27px" viewBox="0 0 27 27" version="1.1" xmlns="http://www.w3.org/2000/svg" xmlns:xlink="http://www.w3.org/1999/xlink">
    <path d="M13.5,27 C6.04415588,27 0,20.9558441 0,13.5 C0,6.04415588 6.04415588,0 13.5,0 C20.9558441,0 27,6.04415588 27,13.5 C27,20.9558441 20.9558441,27 13.5,27 Z M19.5656788,11.8295308 C19.8302788,10.0608231 18.4836019,9.11000773 16.6422019,8.47571538 L17.2395249,6.07977692 L15.7811095,5.71631539 L15.1995711,8.04911539 C14.8161711,7.95357692 14.4223865,7.86343846 14.0310941,7.77413077 L14.6167865,5.42596154 L13.1592019,5.0625 L12.5614634,7.45760769 C12.2441095,7.38533077 11.9325711,7.31388461 11.6301711,7.2387 L11.6318326,7.23122308 L9.62054027,6.72902308 L9.23257111,8.28671539 C9.23257111,8.28671539 10.314648,8.5347 10.2918019,8.55006924 C10.8824788,8.69753076 10.9892326,9.08840773 10.9713711,9.39828462 L10.2909711,12.1277769 C10.3316788,12.1381615 10.3844326,12.1531154 10.4425865,12.1763769 C10.3939865,12.1643308 10.3420634,12.1510385 10.2884788,12.1381615 L9.33475573,15.9617769 C9.26247876,16.1412231 9.07929413,16.4103923 8.66640187,16.3082077 C8.68094027,16.3293923 7.60634031,16.0436077 7.60634031,16.0436077 L6.88232492,17.7130385 L8.78021724,18.1861615 C9.13329413,18.2746385 9.47930951,18.3672692 9.81992489,18.4545 L9.21637111,20.8778539 L10.6731249,21.2413154 L11.2708634,18.8437154 C11.6688019,18.9517154 12.0551095,19.0514077 12.4331095,19.1452846 L11.837448,21.5316692 L13.2958634,21.8951308 L13.8994172,19.4763461 C16.3863249,19.9469769 18.2563865,19.7571461 19.0435403,17.5078385 C19.6778326,15.6967615 19.0119711,14.6520692 17.7035095,13.9708385 C18.6564019,13.7511 19.3741865,13.1242846 19.5656788,11.8295308 Z M16.2334634,16.5021923 C15.7827711,18.3132692 12.7334326,17.3342077 11.7448172,17.0887154 L12.5456788,13.8782077 C13.5342941,14.1249461 16.7045095,14.6134385 16.2334634,16.5021923 Z M16.6845711,11.8033615 C16.2733403,13.4507769 13.7353403,12.6137769 12.912048,12.4085769 L13.6381403,9.49673076 C14.4614326,9.70193076 17.1128326,10.0849154 16.6845711,11.8033615 Z" fill-rule="nonzero"></path>
</svg>