<svg width="11px" height="11px" viewBox="0 0 11 11" version="1.1" xmlns="http://www.w3.org/2000/svg" xmlns:xlink="http://www.w3.org/1999/xlink">
    <path d="M6.76142375,4.09475708 L10.7614237,4.09475708 C11.4978034,4.09475708 12.0947571,4.69171075 12.0947571,5.42809042 C12.0947571,6.16447008 11.4978034,6.76142375 10.7614237,6.76142375 L6.76142375,6.76142375 L6.76142375,10.7614237 C6.76142375,11.4978034 6.16447008,12.0947571 5.42809042,12.0947571 C4.69171075,12.0947571 4.09475708,11.4978034 4.09475708,10.7614237 L4.09475708,6.76142375 L0.0947570825,6.76142375 C-0.641622584,6.76142375 -1.23857625,6.16447008 -1.23857625,5.42809042 C-1.23857625,4.69171075 -0.641622584,4.09475708 0.0947570825,4.09475708 L4.09475708,4.09475708 L4.09475708,0.0947570825 C4.09475708,-0.641622584 4.69171075,-1.23857625 5.42809042,-1.23857625 C6.16447008,-1.23857625 6.76142375,-0.641622584 6.76142375,0.0947570825 L6.76142375,4.09475708 Z" transform="translate(5.428090, 5.428090) rotate(-45.000000) translate(-5.428090, -5.428090)"></path>
</svg>