<svg viewBox="0 0 256 256" version="1.1" xmlns="http://www.w3.org/2000/svg" xmlns:xlink="http://www.w3.org/1999/xlink">
    <path d="M144.876893,127.839779 L179.661,93.055671 C184.365669,88.3510018 184.365669,80.7232261 179.661,76.018557 C174.956331,71.3138879 167.328555,71.3138879 162.623886,76.018557 L127.839779,110.802665 L93.055671,76.018557 C88.3510018,71.3138879 80.7232261,71.3138879 76.018557,76.018557 C71.3138879,80.7232261 71.3138879,88.3510018 76.018557,93.055671 L110.802665,127.839779 L76.018557,162.623886 C71.3138879,167.328555 71.3138879,174.956331 76.018557,179.661 C80.7232261,184.365669 88.3510018,184.365669 93.055671,179.661 L127.839779,144.876893 L162.623886,179.661 C167.328555,184.365669 174.956331,184.365669 179.661,179.661 C184.365669,174.956331 184.365669,167.328555 179.661,162.623886 L144.876893,127.839779 Z M128,256 C57.307552,256 0,198.692448 0,128 C0,57.307552 57.307552,0 128,0 C198.692448,0 256,57.307552 256,128 C256,198.692448 198.692448,256 128,256 Z" id="close"></path>
</svg>