<svg width="20px" height="20px" viewBox="0 0 20 20" version="1.1" xmlns="http://www.w3.org/2000/svg" xmlns:xlink="http://www.w3.org/1999/xlink">
    <g fill-rule="nonzero" stroke="none" stroke-width="1">
        <path d="M15,6 L18,6 L18,18 L6,18 L6,15 L4,15 L4,18 C4,19.1045695 4.8954305,20 6,20 L18,20 C19.1045695,20 20,19.1045695 20,18 L20,6 C20,4.8954305 19.1045695,4 18,4 L15,4 L15,6 Z"></path>
        <path d="M2,2 L2,14 L14,14 L14,2 L2,2 Z M2,0 L14,0 C15.1045695,1.55431223e-15 16,0.8954305 16,2 L16,14 C16,15.1045695 15.1045695,16 14,16 L2,16 C0.8954305,16 2.10942375e-15,15.1045695 0,14 L0,2 C-4.4408921e-16,0.8954305 0.8954305,2.22044605e-16 2,0 Z"></path>
    </g>
</svg>