<?xml version="1.0" encoding="UTF-8"?>
<svg width="27px" height="27px" viewBox="0 0 27 27" version="1.1" xmlns="http://www.w3.org/2000/svg" xmlns:xlink="http://www.w3.org/1999/xlink">
    <path d="M25.5103827,0 L1.48877361,0 C0.66528648,0 0,0.666130217 0,1.48961735 L0,25.5103827 C0,26.3334479 0.66528648,27 1.48877361,27 L14.4219934,27 L14.4219934,16.5321792 L10.8892674,16.5321792 L10.8892674,12.470852 L14.4228371,12.470852 L14.4228371,9.46419587 C14.4228371,5.97660974 16.5511633,4.08748301 19.6624428,4.08748301 C21.1529039,4.08748301 22.4336963,4.18830956 22.8070499,4.23809003 L22.8070499,7.88429868 L20.649193,7.88345495 C18.9570788,7.88345495 18.6410994,8.68753613 18.6410994,9.86750207 L18.6410994,12.470852 L22.6648802,12.470852 L22.1396541,16.5321792 L18.6410994,16.5321792 L18.6410994,27 L25.5103827,27 C26.3334479,27 27,26.3334479 27,25.5103827 L27,1.48961735 C27,0.666130217 26.3334479,0 25.5103827,0"></path>
</svg>