<?xml version="1.0" encoding="UTF-8"?>
<svg width="27px" height="27px" viewBox="0 0 27 27" version="1.1" xmlns="http://www.w3.org/2000/svg" xmlns:xlink="http://www.w3.org/1999/xlink">
    <path d="M13.4987569,0 C6.04493692,0 0,6.04410817 0,13.5004144 C0,19.4649621 3.86779827,24.5245097 9.23232757,26.3096473 C9.90776267,26.4339605 10.1539028,26.0170969 10.1539028,25.6590749 C10.1539028,25.3391755 10.1423003,24.489702 10.1356702,23.3634243 C6.38058258,24.1789189 5.58829307,21.553424 5.58829307,21.553424 C4.97418583,19.9937076 4.08907579,19.5785015 4.08907579,19.5785015 C2.86334756,18.7414592 4.18189631,18.7580343 4.18189631,18.7580343 C5.53691028,18.8533411 6.24963934,20.1495135 6.24963934,20.1495135 C7.45381995,22.212284 9.40968108,21.6164093 10.1787655,21.2708186 C10.3014212,20.3989687 10.6503269,19.8039228 11.0356978,19.4666196 C8.03809202,19.1260014 4.88633782,17.9674023 4.88633782,12.7943154 C4.88633782,11.3207895 5.41259707,10.1149513 6.27615949,9.17182848 C6.1369287,8.83038153 5.67365481,7.45713496 6.40876024,5.59906688 C6.40876024,5.59906688 7.54166795,5.23607232 10.1207526,6.98308726 C11.197305,6.68307806 12.3525891,6.53390221 13.5004144,6.52810092 C14.6474109,6.53390221 15.8018662,6.68307806 16.8800761,6.98308726 C19.4575033,5.23607232 20.5887535,5.59906688 20.5887535,5.59906688 C21.3255164,7.45713496 20.8622425,8.83038153 20.7238405,9.17182848 C21.5890604,10.1149513 22.1111759,11.3207895 22.1111759,12.7943154 C22.1111759,17.9806624 18.9544492,19.1218576 15.9477271,19.4558458 C16.4317198,19.8727094 16.863501,20.6964916 16.863501,21.9561988 C16.863501,23.7603978 16.8469259,25.2165198 16.8469259,25.6590749 C16.8469259,26.0204119 17.0905798,26.4405906 17.7751312,26.3088186 C23.1355167,24.5195371 27,19.4633046 27,13.5004144 C27,6.04410817 20.9550631,0 13.4987569,0"></path>
</svg>