<svg width="27px" height="26px" viewBox="0 0 27 26" version="1.1" xmlns="http://www.w3.org/2000/svg" xmlns:xlink="http://www.w3.org/1999/xlink">
    <g stroke="none" stroke-width="1" fill-rule="evenodd">
        <g transform="rotate(-45) translate(-14.5, 13.4)">
            <path d="M27,2 L18,2 L18,8 L27,8 L27,2 Z M29,2 L29,8 C29,9.1045695 28.1045695,10 27,10 L18,10 C16.8954305,10 16,9.1045695 16,8 L16,2 C16,0.8954305 16.8954305,2.44217792e-14 18,2.46246854e-14 L27,2.62779586e-14 C28.1045695,2.64808647e-14 29,0.8954305 29,2 Z M13,2 L13,8 C13,9.1045695 12.1045695,10 11,10 L2,10 C0.8954305,10 -4.4408921e-14,9.1045695 -4.4408921e-14,8 L-4.26325641e-14,2 C-4.26325641e-14,0.8954305 0.8954305,-1.1993536e-14 2,-1.17906298e-14 L11,-1.01373567e-14 C12.1045695,-9.93445053e-15 13,0.8954305 13,2 Z M11,2 L2,2 L2,8 L11,8 L11,2 Z"></path>
            <rect x="7" y="4" width="14" height="2"></rect>
        </g>
    </g>
</svg>


