
<svg width="26px" height="18px" viewBox="0 0 26 18" version="1.1" xmlns="http://www.w3.org/2000/svg" xmlns:xlink="http://www.w3.org/1999/xlink">
    <g stroke="none" stroke-width="1" fill-rule="evenodd">
        <path d="M2,2 L2,16 L24,16 L24,2 L2,2 Z M2,0 L24,0 C25.1045695,-2.22044605e-16 26,0.8954305 26,2 L26,16 C26,17.1045695 25.1045695,18 24,18 L2,18 C0.8954305,18 0,17.1045695 0,16 L0,2 C-2.22044605e-16,0.8954305 0.8954305,0 2,0 Z"></path>
        <path d="M23.0221737,1.95784397 L2.97792962,1.95784397 L13.0000516,9.53628363 L23.0221737,1.95784397 Z M2.97792962,0 L23.0221737,0 C24.114497,5.10806211e-15 25,0.876556601 25,1.95784397 C25,2.56800923 24.7126235,3.14329087 24.2227941,3.5136858 L13.0000516,12 L1.77730921,3.5136858 C0.909271529,2.85730074 0.743124018,1.62862139 1.40620836,0.769353674 C1.78038366,0.28447303 2.36153681,1.63023259e-15 2.97792962,0 Z"></path>
    </g>
</svg>