<svg width="26px" height="27px" viewBox="0 0 26 27" version="1.1" xmlns="http://www.w3.org/2000/svg" xmlns:xlink="http://www.w3.org/1999/xlink">
    <g fill-rule="nonzero" stroke="none" stroke-width="1">
        <path d="M4,19 L4,14 L22,14 L22,19 L24,19 L24,9 L2,9 L2,19 L4,19 Z M4,21 L2,21 C0.8954305,21 1.11022302e-16,20.1045695 0,19 L0,9 C-2.22044605e-16,7.8954305 0.8954305,7 2,7 L24,7 C25.1045695,7 26,7.8954305 26,9 L26,19 C26,20.1045695 25.1045695,21 24,21 L22,21 L22,27 L4,27 L4,21 Z M6,16 L6,25 L20,25 L20,16 L6,16 Z M8,18 L18,18 L18,20 L8,20 L8,18 Z M8,21 L18,21 L18,23 L8,23 L8,21 Z M19,11 L22,11 L22,13 L19,13 L19,11 Z"></path>
        <path d="M21,2 L5,2 L5,7 L21,7 L21,2 Z M5,0 L21,0 C22.1045695,-2.22044605e-16 23,0.8954305 23,2 L23,9 L3,9 C3,8.12533439 3,7.45866772 3,7 C3,5.90311217 3,4.2364455 3,2 C3,0.8954305 3.8954305,2.22044605e-16 5,0 Z"></path>
    </g>
</svg>