<svg width="14px" height="14px" viewBox="0 0 14 14" version="1.1" xmlns="http://www.w3.org/2000/svg" xmlns:xlink="http://www.w3.org/1999/xlink">
    <path d="M13.7620397,12.6713881 L10.9660057,9.85552408 C11.7592068,8.82436261 12.2351275,7.53541076 12.2351275,6.12747875 C12.2351275,2.75637394 9.49858357,0 6.10764873,0 C2.71671388,0 0,2.75637394 0,6.14730878 C0,9.5184136 2.73654391,12.2747875 6.12747875,12.2747875 C7.53541076,12.2747875 8.82436261,11.7988669 9.85552408,11.0056657 L12.6515581,13.8016997 C12.8101983,13.9603399 13.0084986,14.0396601 13.2067989,14.0396601 C13.4050992,14.0396601 13.6033994,13.9603399 13.7620397,13.8016997 C14.0793201,13.4844193 14.0793201,12.9688385 13.7620397,12.6713881 Z M1.58640227,6.14730878 C1.58640227,3.64872521 3.62889518,1.60623229 6.12747875,1.60623229 C8.62606232,1.60623229 10.6487252,3.64872521 10.6487252,6.14730878 C10.6487252,8.64589235 8.60623229,10.6883853 6.10764873,10.6883853 C3.60906516,10.6883853 1.58640227,8.64589235 1.58640227,6.14730878 Z"></path>
</svg>