<?xml version="1.0" encoding="UTF-8"?>
<svg width="27px" height="24px" viewBox="0 0 27 24" version="1.1" xmlns="http://www.w3.org/2000/svg" xmlns:xlink="http://www.w3.org/1999/xlink">
    <path d="M26.9769928,3.21463292 L22.1898607,24.9624247 C22.0215631,25.6917144 21.1613753,25.9909102 20.5816835,25.5234168 L14.971763,21.0728799 C14.5603688,20.7362846 13.9432776,20.7923838 13.5879826,21.203778 L10.7082234,24.5323308 C10.2033305,25.1307223 9.23094433,24.9250253 9.00654751,24.1957356 L6.46338355,16.3605466 C6.35118514,16.0426511 6.08938885,15.7808548 5.77149335,15.7060559 L0.741264635,14.3783747 C-0.17502238,14.1352782 -0.268521055,12.8636962 0.61036649,12.4897015 L25.6119122,2.07394909 C26.3599016,1.77475333 27.1452905,2.42924405 26.9769928,3.21463292 Z M20.7940402,7.31488006 L7.74162519,15.1687688 C7.51722837,15.2996669 7.42372969,15.5614632 7.49852863,15.8045598 L9.20020452,21.9006734 C9.25630373,22.068971 9.49940028,22.0502712 9.51810002,21.8632739 L9.89209472,17.6558335 C9.91079445,17.337938 10.0603923,17.0387423 10.3034889,16.8330452 L20.9623378,7.53927688 C21.0745362,7.42707847 20.9249384,7.22138139 20.7940402,7.31488006 Z" fill-rule="nonzero" transform="translate(0.000000, -2.000000)"></path>
</svg>