<?xml version="1.0" encoding="UTF-8"?>
<svg width="27px" height="21px" viewBox="0 0 27 21" version="1.1" xmlns="http://www.w3.org/2000/svg" xmlns:xlink="http://www.w3.org/1999/xlink">
    <path d="M23.559375,8.22092308 C25.291875,7.01261538 26.25,5.48123077 26.25,5.48123077 C26.25,5.48123077 25.0096875,6.08215385 23.165625,6.32123077 C25.0228125,5.20338462 25.528125,3.38769231 25.528125,3.38769231 C25.528125,3.38769231 24.2746875,4.20830769 22.1025,4.68 C21.2358398,3.78184615 19.9196484,3 18.178125,3 C14.6671875,3 12.1275,6.25661538 12.928125,9.51323077 C11.6414648,9.51323077 5.88492187,8.95148077 1.824375,3.96923077 C-0.3346875,7.90430769 2.795625,10.7086154 3.49125,11.0510769 C3.189375,11.0316923 2.1525,11.0187692 1.063125,10.392 C1.063125,11.7101538 1.68,14.844 5.368125,15.6387692 C4.1475,16.0135385 2.94,15.7421538 2.94,15.7421538 C2.94,15.7421538 3.9309375,19.2507692 7.966875,19.4252308 C4.1475,22.3716923 0,21.6092308 0,21.6092308 C0,21.6092308 3.30216797,24 8.26875,24 C15.9431836,24 23.559375,18.4705385 23.559375,8.22092308 Z" transform="translate(0.000000, -3.000000)"></path>
</svg>