<?xml version="1.0" encoding="UTF-8"?>
<svg fill="#F7931A" viewBox="0 0 40 40" version="1.1" xmlns="http://www.w3.org/2000/svg" xmlns:xlink="http://www.w3.org/1999/xlink">
    <path d="M159,165 C147.954305,165 139,156.045695 139,145 C139,133.954305 147.954305,125 159,125 C170.045695,125 179,133.954305 179,145 C179,156.045695 170.045695,165 159,165 Z M163.890095,137.592438 C162.708256,135.221165 160.266036,135.211624 157.492403,136.00659 L156.181358,132.591407 L154.102637,133.389603 L155.379186,136.714751 C154.832725,136.924601 154.27825,137.149828 153.727505,137.373946 L152.442937,134.026617 L150.365224,134.824108 L151.675059,138.238635 C151.228514,138.420592 150.789733,138.598615 150.358866,138.764337 L150.354528,138.753851 L147.486966,139.853483 L148.339781,142.073508 C148.339781,142.073508 149.863668,141.454965 149.849003,141.49303 C150.691128,141.17006 151.152825,141.553698 151.394465,141.94493 L152.888126,145.835494 C152.946351,145.813505 153.023078,145.786825 153.113418,145.765638 C153.044203,145.792317 152.969896,145.820308 152.893926,145.850214 L154.985617,151.300814 C155.050388,151.58 155.056807,152.062312 154.468907,152.289157 C154.504552,152.302512 152.957619,152.86883 152.957619,152.86883 L153.49757,155.510009 L156.202807,154.471451 C156.706469,154.278798 157.205091,154.097187 157.692572,153.913611 L159.019352,157.367358 L161.096056,156.570574 L159.784104,153.153022 C160.358798,152.945941 160.912317,152.738661 161.450814,152.531384 L162.755757,155.93356 L164.834478,155.135364 L163.511581,151.687162 C166.929504,150.145067 169.037626,148.325625 168.081551,144.92708 C167.312352,142.190247 165.61657,141.488263 163.449804,141.773405 C164.419474,140.697026 164.757915,139.326417 163.890095,137.592438 Z M163.816817,146.094512 C164.808825,148.675333 160.276324,150.078338 158.867976,150.620488 L157.111762,146.043822 C158.521169,145.503185 162.783504,143.402131 163.816817,146.094512 Z M160.371465,140.008881 C161.272291,142.357556 157.481045,143.498455 156.307564,143.949019 L154.714399,139.798332 C155.88788,139.347767 159.430948,137.559533 160.371465,140.008881 Z" fill-rule="nonzero" transform="translate(-139.000000, -125.000000)"></path>
</svg>