<?xml version="1.0" encoding="UTF-8"?>
<svg viewBox="0 0 64 64" version="1.1" xmlns="http://www.w3.org/2000/svg" xmlns:xlink="http://www.w3.org/1999/xlink" fill="#F7931A">
    <title>BTC</title>
    <path d="M32,64 C14.326888,64 0,49.673112 0,32 C0,14.326888 14.326888,0 32,0 C49.673112,0 64,14.326888 64,32 C64,49.673112 49.673112,64 32,64 Z M46.3779052,28.0403692 C47.0051052,23.847877 43.8129822,21.5940924 39.4481822,20.0905846 L40.864059,14.4113231 L37.4070744,13.5497846 L36.028613,19.0793846 C35.119813,18.8529231 34.1863976,18.6392615 33.2588898,18.4275692 L34.6471976,12.8615385 L31.1921822,12 L29.7753206,17.6772923 C29.0230744,17.5059692 28.284613,17.3366154 27.567813,17.1584 L27.5717514,17.1406769 L22.8042436,15.9502769 L21.884613,19.6425846 C21.884613,19.6425846 24.449536,20.2304 24.3953822,20.2668308 C25.7955052,20.6163692 26.0485514,21.5428924 26.006213,22.2774154 L24.393413,28.747323 C24.4899052,28.7719384 24.6149514,28.8073846 24.7527976,28.862523 C24.6375976,28.8339692 24.5145206,28.8024616 24.3875052,28.7719384 L22.1268284,37.835323 C21.9555052,38.260677 21.5212898,38.8987076 20.5425822,38.6564924 C20.5770436,38.7067076 18.0298437,38.0292924 18.0298437,38.0292924 L16.3136591,41.9864616 L20.8123668,43.1079384 C21.6492898,43.3176616 22.4694744,43.5372308 23.276859,43.744 L21.846213,49.4882462 L25.299259,50.3497846 L26.7161206,44.6665846 C27.6593822,44.9225846 28.5750744,45.1588924 29.4710744,45.3814154 L28.059136,51.0380308 L31.5161206,51.8995692 L32.9467668,46.1661538 C38.841659,47.281723 43.2743976,46.8317538 45.1402436,41.5000616 C46.6437514,37.2071384 45.065413,34.7308308 41.9638744,33.1160616 C44.2225822,32.5952 45.9239976,31.1094154 46.3779052,28.0403692 Z M38.4793206,39.1163076 C37.411013,43.4092308 30.1829514,41.0884924 27.8395668,40.5065846 L29.7379052,32.8964924 C32.0812898,33.4813538 39.5958744,34.6392616 38.4793206,39.1163076 Z M39.548613,27.9783384 C38.5738436,31.883323 32.5578436,29.899323 30.606336,29.412923 L32.3274436,22.5107692 C34.2789514,22.9971692 40.5637514,23.9049846 39.548613,27.9783384 Z"></path>
</svg>