<?xml version="1.0" encoding="UTF-8"?>
<svg viewBox="0 0 64 64" version="1.1" xmlns="http://www.w3.org/2000/svg" xmlns:xlink="http://www.w3.org/1999/xlink" fill="#1C75BC">
    <title>DASH</title>
    <path d="M32,64 C14.326888,64 0,49.673112 0,32 C0,14.326888 14.326888,0 32,0 C49.673112,0 64,14.326888 64,32 C64,49.673112 49.673112,64 32,64 Z M12.7619048,29.3714286 L10.7428571,35.2761904 L26.247619,35.2761904 L28.2285714,29.3714286 L12.7619048,29.3714286 Z M19.9619048,19.5809524 L17.9428571,25.9428572 L44.0380952,25.9428572 L53.1428572,25.9428572 C53.1428572,25.9428572 54.9333334,19.5809524 48.647619,19.5809524 C42.3619048,19.5809524 19.9619048,19.5809524 19.9619048,19.5809524 Z M11.7333333,45.0666666 C11.7333333,45.0666666 34.5904762,45.0666666 40.5714286,45.0666666 C46.552381,45.0666666 49.0666666,38.704762 49.0666666,38.704762 L39.847619,38.704762 L13.7904762,38.704762 L11.7333333,45.0666666 Z M44.0380952,25.9428572 L39.9238096,38.704762 L49.0666666,38.704762 L53.1428572,25.9428572 L44.0380952,25.9428572 Z"></path>
</svg>