<?xml version="1.0" encoding="UTF-8"?>
<svg fill="#FF3974" viewBox="0 0 64 64" version="1.1" xmlns="http://www.w3.org/2000/svg" xmlns:xlink="http://www.w3.org/1999/xlink">
    <path d="M32,64 C14.326888,64 0,49.673112 0,32 C0,14.326888 14.326888,0 32,0 C49.673112,0 64,14.326888 64,32 C64,49.673112 49.673112,64 32,64 Z M38.6297231,16 L23.82627,16 L22.5995767,22.8565246 L35.9583452,22.8732587 C42.5373694,22.8709321 44.482378,25.2613195 44.4266274,29.2237321 C44.3981704,31.2550065 43.5176144,34.688996 43.137114,35.8024877 C42.1232217,38.7692635 40.0415658,42.1545719 32.2323584,42.1424016 L19.2469313,42.1368534 L18.0177323,49 L32.7882541,49 C37.9978526,49 40.2126657,48.3939913 42.5604571,47.3096725 C47.7620912,44.9072043 50.8573709,39.7733121 52.0973083,33.073301 C53.9436124,23.0971562 51.6437862,16 38.6297231,16 Z M17.4386862,29.0569007 C13.5608392,29.0569007 13.0053909,31.5835774 12.6383136,33.1108589 C12.1578558,35.1103654 12,35.9201368 12,35.9201368 L27.1574653,35.9201368 C31.0353123,35.9201368 31.5907606,33.3933706 31.9578379,31.8661786 C32.4382957,29.8666722 32.5961515,29.0569007 32.5961515,29.0569007 L17.4386862,29.0569007 Z"></path>
</svg>