<?xml version="1.0" encoding="UTF-8"?>
<svg viewBox="0 0 40 40" version="1.1" xmlns="http://www.w3.org/2000/svg" xmlns:xlink="http://www.w3.org/1999/xlink" fill="#7ED321">
    <path d="M159,40 C147.954305,40 139,31.045695 139,20 C139,8.954305 147.954305,0 159,0 C170.045695,0 179,8.954305 179,20 C179,31.045695 170.045695,40 159,40 Z M168,13.6964286 L160.584184,16.3596939 L160.584184,24.2806123 L168,27.7704082 L168,13.6964286 Z M150,28.0229592 L157.232143,31.4209184 L157.232143,17.4387755 L150,14.0178572 L150,28.0229592 Z M167.701531,13.4209184 L167.816327,13.375 L167.885204,13.3520408 L160.767857,10 L160.69898,10.0229592 L160.515306,10.0918367 L160.423469,10.1147959 L150.298469,13.7653061 L157.415816,17.1173469 L160.423469,16.0382653 L160.584184,15.9693878 L167.701531,13.4209184 Z"  transform="translate(-139.000000, 0.000000)"></path>
</svg>