<?xml version="1.0" encoding="UTF-8"?>
<svg viewBox="0 0 40 40" version="1.1" xmlns="http://www.w3.org/2000/svg" xmlns:xlink="http://www.w3.org/1999/xlink" fill="#F7931A">
    <path d="M20,165 C8.954305,165 0,156.045695 0,145 C0,133.954305 8.954305,125 20,125 C31.045695,125 40,133.954305 40,145 C40,156.045695 31.045695,165 20,165 Z M19.9368111,132 C12.7933973,132 7,137.792696 7,144.93646 C7,146.364652 7.23137134,147.738157 7.65905763,149.022969 L11.5278664,149.022969 L11.5278664,138.138351 L19.9368111,146.547296 L28.3457558,138.138351 L28.3457558,149.022969 L32.2149151,149.022969 C32.6426014,147.738157 32.8739727,146.364652 32.8739727,144.93646 C32.8739727,137.792696 27.0805755,132 19.9368111,132 Z M14.3917961,144.936986 L14.3917961,151.785928 L8.94054795,151.785928 C11.2114924,155.511707 15.3130746,158 19.994838,158 C24.6766013,158 28.7785341,155.511707 31.049128,151.785928 L25.5982304,151.785928 L25.5982304,144.936986 L19.994838,150.540379 L14.3917961,144.936986 Z"  fill-rule="nonzero" transform="translate(0.000000, -125.000000)"></path>
</svg>