<?xml version="1.0" encoding="UTF-8"?>
<svg fill="#0893EB" viewBox="0 0 64 64" version="1.1" xmlns="http://www.w3.org/2000/svg" xmlns:xlink="http://www.w3.org/1999/xlink">
    <title>XRP</title>
    <path d="M32,64 C14.326888,64 0,49.673112 0,32 C0,14.326888 14.326888,0 32,0 C49.673112,0 64,14.326888 64,32 C64,49.673112 49.673112,64 32,64 Z M45.5490521,16 L36.812409,25.099894 C34.1756598,27.8460955 29.9010289,27.8460955 27.2644419,25.099894 L18.5277628,16 L13,16 L24.5005425,27.978667 C28.6635992,32.3148033 35.4132698,32.3148033 39.5762544,27.978667 L51.0769231,16 L45.5490521,16 Z M18.5072342,49 L27.2822048,39.8704062 C29.9089917,37.137448 34.1677159,37.137448 36.7946644,39.8704062 L45.5695991,49 L51.0769231,49 L39.5484162,37.0055897 C35.4007257,32.6904445 28.6761615,32.6904445 24.5285787,37.0055897 L13,49 L18.5072342,49 Z"></path>
</svg>